<svg width="38" height="43" viewBox="0 0 38 43" version="1.1" xmlns="http://www.w3.org/2000/svg" xmlns:xlink="http://www.w3.org/1999/xlink">
<title>Group 16</title>
<desc>Created using Figma</desc>
<g id="Canvas" transform="translate(14867 -13737)">
<g id="Group 16">
<g id="Fill 1 Copy 5.3">
<use xlink:href="#path0_fill" transform="translate(-14865.9 13737)" fill="url(#paint0_linear)" fill-opacity="0.8"/>
</g>
<g id="Fill 1 Copy 5.4" filter="url(#filter0_d)">
<use xlink:href="#path1_fill" transform="translate(-14861.8 13741.1)" fill="url(#paint1_linear)"/>
</g>
<g id="icons_24px-Privacy Policy_white">
<g id="Vector">
<use xlink:href="#path2_fill" transform="translate(-14855 13748.8)" fill="#FFFFFF"/>
</g>
<g id="Vector">
<use xlink:href="#path3_fill" transform="translate(-14851.3 13754.6)" fill="#FFFFFF"/>
</g>
</g>
</g>
</g>
<defs>
<filter id="filter0_d" filterUnits="userSpaceOnUse" x="-14867" y="13738" width="38" height="42" color-interpolation-filters="sRGB">
<feFlood flood-opacity="0" result="BackgroundImageFix"/>
<feColorMatrix in="SourceAlpha" type="matrix" values="0 0 0 0 0 0 0 0 0 0 0 0 0 0 0 0 0 0 255 0"/>
<feOffset dx="0" dy="2"/>
<feGaussianBlur stdDeviation="2.5"/>
<feColorMatrix type="matrix" values="0 0 0 0 0 0 0 0 0 0 0 0 0 0 0 0 0 0 0.5 0"/>
<feBlend mode="normal" in2="BackgroundImageFix" result="effect1_dropShadow"/>
<feBlend mode="normal" in="SourceGraphic" in2="effect1_dropShadow" result="shape"/>
</filter>
<linearGradient id="paint0_linear" x1="0" y1="0" x2="1" y2="0" gradientUnits="userSpaceOnUse" gradientTransform="matrix(-1.08783 38.8966 -42.1227 -1.21212 39.0106 0.60606)">
<stop offset="0" stop-color="#FF9159"/>
<stop offset="1" stop-color="#FF574F"/>
</linearGradient>
<linearGradient id="paint1_linear" x1="0" y1="0" x2="1" y2="0" gradientUnits="userSpaceOnUse" gradientTransform="matrix(-0.836795 30.849 -32.4021 -0.961337 30.0082 0.480669)">
<stop offset="0" stop-color="#FF9159"/>
<stop offset="1" stop-color="#FF574F"/>
</linearGradient>
<path id="path0_fill" fill-rule="evenodd" d="M 16.0117 0.516394L 1.93783 8.59046C 0.738463 9.27848 0 10.5498 0 11.9259L 0 28.0745C 0 29.4505 0.738463 30.7214 1.93783 31.4094L 16.0117 39.484C 17.2106 40.172 18.688 40.172 19.8874 39.484L 33.9607 31.4094C 35.1596 30.7214 35.8985 29.4505 35.8985 28.0745L 35.8985 11.9259C 35.8985 10.5498 35.1596 9.27848 33.9607 8.59046L 19.8874 0.516394C 19.2872 0.172131 18.6181 0 17.9495 0C 17.2804 0 16.6114 0.172131 16.0117 0.516394Z"/>
<path id="path1_fill" fill-rule="evenodd" d="M 12.3167 0.409554L 1.49064 6.81312C 0.568049 7.35879 0 8.36711 0 9.45845L 0 22.266C 0 23.3573 0.568049 24.3652 1.49064 24.9109L 12.3167 31.3149C 13.2389 31.8606 14.3754 31.8606 15.298 31.3149L 26.1236 24.9109C 27.0458 24.3652 27.6143 23.3573 27.6143 22.266L 27.6143 9.45845C 27.6143 8.36711 27.0458 7.35879 26.1236 6.81312L 15.298 0.409554C 14.8363 0.136518 14.3216 0 13.8073 0C 13.2927 0 12.778 0.136518 12.3167 0.409554Z"/>
<path id="path2_fill" d="M 13.8796 4.39485C 13.8796 3.97818 13.8796 3.56151 13.8796 3.14485C 13.8796 2.92383 13.7918 2.71187 13.6355 2.55559C 13.4793 2.39931 13.2673 2.31151 13.0463 2.31151C 12.0323 2.36176 11.0189 2.20272 10.0691 1.8443C 9.11928 1.48588 8.25343 0.935753 7.52545 0.22818C 7.37068 0.0816568 7.16566 -2.06416e-07 6.95253 -2.06416e-07C 6.73941 -2.06416e-07 6.53439 0.0816568 6.37962 0.22818C 5.65164 0.935753 4.78579 1.48588 3.83598 1.8443C 2.88616 2.20272 1.87273 2.36176 0.858785 2.31151C 0.637771 2.31151 0.42581 2.39931 0.26953 2.55559C 0.113249 2.71187 0.0254522 2.92383 0.0254522 3.14485C 0.0254522 3.56151 0.0254522 3.97818 0.0254522 4.39485C -0.0787145 8.45735 -0.182881 13.9782 6.69212 16.374L 7.21295 16.374C 14.088 13.9782 13.9838 8.45735 13.8796 4.39485ZM 7.00462 14.7073C 1.58795 12.7282 1.69212 8.24901 1.69212 4.39485L 1.69212 3.87401C 3.63201 3.81436 5.49856 3.11898 7.00462 1.89485C 8.48251 3.09786 10.3091 3.79196 12.213 3.87401L 12.213 4.29068C 12.3171 8.24901 12.4213 12.7282 7.00462 14.7073Z"/>
<path id="path3_fill" d="M 4.98155 0.258883L 2.48155 2.75888L 1.54405 1.82138C 1.47825 1.71391 1.38894 1.62277 1.28284 1.55479C 1.17673 1.48682 1.05659 1.4438 0.931455 1.42896C 0.806321 1.41413 0.679452 1.42786 0.560391 1.46913C 0.441331 1.51041 0.333181 1.57814 0.244078 1.66724C 0.154974 1.75635 0.087239 1.8645 0.0459666 1.98356C 0.00469414 2.10262 -0.00904022 2.22949 0.00579703 2.35462C 0.0206343 2.47976 0.0636567 2.5999 0.131627 2.706C 0.199598 2.81211 0.290747 2.90142 0.398216 2.96722L 1.96072 4.52972L 2.58572 4.73805L 3.21072 4.52972L 6.23155 1.50888C 6.39731 1.34312 6.49043 1.1183 6.49043 0.883884C 6.49043 0.649463 6.39731 0.424644 6.23155 0.258883C 6.06579 0.0931232 5.84097 -3.57402e-07 5.60655 -3.57402e-07C 5.37213 -3.57402e-07 5.14731 0.0931232 4.98155 0.258883Z"/>
</defs>
</svg>