<svg width="38" height="43" viewBox="0 0 38 43" version="1.1" xmlns="http://www.w3.org/2000/svg" xmlns:xlink="http://www.w3.org/1999/xlink">
<title>Group 2</title>
<desc>Created using Figma</desc>
<g id="Canvas" transform="translate(15135 -13737)">
<g id="Group 2">
<g id="Group 2">
<g id="Fill 1 Copy 5.5">
<use xlink:href="#path0_fill" transform="translate(-15134 13737)" fill="url(#paint0_linear)" fill-opacity="0.8"/>
</g>
<g id="Fill 1 Copy 5.6" filter="url(#filter0_d)">
<use xlink:href="#path1_fill" transform="translate(-15129.9 13741.1)" fill="url(#paint1_linear)"/>
</g>
</g>
<g id="Group">
<g id="Group">
<g id="Vector">
<use xlink:href="#path2_fill" transform="matrix(0.862646 0.505808 -0.505808 0.862646 -15119.9 13743)" fill="#FFFFFF"/>
</g>
<g id="Vector">
<use xlink:href="#path3_fill" transform="matrix(0.862646 0.505808 -0.505808 0.862646 -15121 13759.4)" fill="#FFFFFF"/>
</g>
<g id="Vector">
<use xlink:href="#path4_fill" transform="matrix(0.862646 0.505808 -0.505808 0.862646 -15111.6 13755)" fill="#FFFFFF"/>
</g>
</g>
</g>
</g>
</g>
<defs>
<filter id="filter0_d" filterUnits="userSpaceOnUse" x="-15135" y="13738" width="38" height="42" color-interpolation-filters="sRGB">
<feFlood flood-opacity="0" result="BackgroundImageFix"/>
<feColorMatrix in="SourceAlpha" type="matrix" values="0 0 0 0 0 0 0 0 0 0 0 0 0 0 0 0 0 0 255 0"/>
<feOffset dx="0" dy="2"/>
<feGaussianBlur stdDeviation="2.5"/>
<feColorMatrix type="matrix" values="0 0 0 0 0 0 0 0 0 0 0 0 0 0 0 0 0 0 0.5 0"/>
<feBlend mode="normal" in2="BackgroundImageFix" result="effect1_dropShadow"/>
<feBlend mode="normal" in="SourceGraphic" in2="effect1_dropShadow" result="shape"/>
</filter>
<linearGradient id="paint0_linear" x1="0" y1="0" x2="1" y2="0" gradientUnits="userSpaceOnUse" gradientTransform="matrix(-1.08783 38.8966 -42.1227 -1.21212 39.0106 0.60606)">
<stop offset="0" stop-color="#FF9159"/>
<stop offset="1" stop-color="#FF574F"/>
</linearGradient>
<linearGradient id="paint1_linear" x1="0" y1="0" x2="1" y2="0" gradientUnits="userSpaceOnUse" gradientTransform="matrix(-0.836795 30.849 -32.4021 -0.961337 30.0082 0.480669)">
<stop offset="0" stop-color="#FF9159"/>
<stop offset="1" stop-color="#FF574F"/>
</linearGradient>
<path id="path0_fill" fill-rule="evenodd" d="M 16.0117 0.516394L 1.93783 8.59046C 0.738463 9.27848 0 10.5498 0 11.9259L 0 28.0745C 0 29.4505 0.738463 30.7214 1.93783 31.4094L 16.0117 39.484C 17.2106 40.172 18.688 40.172 19.8874 39.484L 33.9607 31.4094C 35.1596 30.7214 35.8985 29.4505 35.8985 28.0745L 35.8985 11.9259C 35.8985 10.5498 35.1596 9.27848 33.9607 8.59046L 19.8874 0.516394C 19.2872 0.172131 18.6181 0 17.9495 0C 17.2804 0 16.6114 0.172131 16.0117 0.516394Z"/>
<path id="path1_fill" fill-rule="evenodd" d="M 12.3167 0.409554L 1.49064 6.81312C 0.568049 7.35879 0 8.36711 0 9.45845L 0 22.266C 0 23.3573 0.568049 24.3652 1.49064 24.9109L 12.3167 31.3149C 13.2389 31.8606 14.3754 31.8606 15.298 31.3149L 26.1236 24.9109C 27.0458 24.3652 27.6143 23.3573 27.6143 22.266L 27.6143 9.45845C 27.6143 8.36711 27.0458 7.35879 26.1236 6.81312L 15.298 0.409554C 14.8363 0.136518 14.3216 0 13.8073 0C 13.2927 0 12.778 0.136518 12.3167 0.409554Z"/>
<path id="path2_fill" d="M 19.4576 6.80289L 13.2353 0.575865C 12.863 0.203472 12.3678 0 11.8381 0C 11.3084 0 10.8132 0.203472 10.4409 0.575865L 0.575783 10.4424C 0.203443 10.8147 0 11.31 0 11.8398C 0 12.3696 0.203443 12.8648 0.575783 13.2372L 6.49483 19.1571C 6.59463 19.2723 7.28941 20.0363 7.97267 20.0363C 7.98035 20.0363 7.99186 20.0363 7.99954 20.0363L 8.19531 20.0363L 8.45249 20.0363C 8.73654 20.0363 9.1703 19.7368 9.73456 19.2838C 9.77295 19.2531 9.80366 19.2262 9.82669 19.2109C 9.86124 19.184 9.89194 19.1571 9.91881 19.1264L 19.4576 9.59775C 20.2292 8.8261 20.2292 7.57071 19.4576 6.80289ZM 11.9571 4.24221C 12.0722 4.12703 12.1337 3.97731 12.1337 3.81607C 12.1337 3.65483 12.0722 3.5051 11.9571 3.38993C 11.7229 3.15574 11.3429 3.15574 11.1049 3.38993L 1.76957 12.7305L 1.42794 12.3888C 1.28208 12.2429 1.20147 12.0509 1.20147 11.8436C 1.20147 11.6363 1.28208 11.4405 1.42794 11.2985L 11.293 1.43199C 11.4389 1.2861 11.6308 1.20548 11.8381 1.20548C 12.0454 1.20548 12.2411 1.2861 12.3832 1.43199L 14.4637 3.51278L 5.1283 12.8456C 4.89415 13.0798 4.89415 13.4599 5.1283 13.6979C 5.24346 13.8131 5.39316 13.8745 5.55438 13.8745C 5.7156 13.8745 5.86531 13.8131 5.98046 13.6979L 15.3158 4.35738L 18.6093 7.65133C 18.7552 7.79722 18.8358 7.99301 18.8358 8.19648C 18.8358 8.39995 18.7552 8.59575 18.6093 8.74164L 8.74422 18.6081C 8.59835 18.754 8.40643 18.8308 8.19531 18.8346C 7.98802 18.8346 7.7961 18.754 7.65023 18.6081L 2.62173 13.5789L 11.9571 4.24221Z"/>
<path id="path3_fill" d="M 1.02777 2.34857L 2.34823 1.02792C 2.58238 0.793734 2.58238 0.413664 2.34823 0.175639C 2.11408 -0.0585458 1.73407 -0.0585458 1.49608 0.175639L 0.175613 1.49629C -0.0585381 1.73048 -0.0585381 2.11055 0.175613 2.34857C 0.29077 2.46374 0.440474 2.52517 0.601693 2.52517C 0.762912 2.52517 0.912616 2.4599 1.02777 2.34857Z"/>
<path id="path4_fill" d="M 1.33582 3.9274C 1.45097 4.04257 1.60068 4.104 1.76189 4.104C 1.92311 4.104 2.07282 4.04257 2.18797 3.9274L 3.92684 2.18829C 4.16099 1.9541 4.16099 1.57403 3.92684 1.33601L 2.7676 0.176599C 2.65244 0.0614259 2.50274 -1.09114e-15 2.34152 -1.09114e-15C 2.1803 -1.09114e-15 2.03059 0.0614259 1.91544 0.176599L 0.176574 1.91571C 0.0614173 2.03088 2.34287e-07 2.18061 2.34287e-07 2.34185C 2.34287e-07 2.50309 0.0614173 2.65282 0.176574 2.76799L 1.33582 3.9274ZM 1.45097 2.34569L 2.33768 1.45886L 2.64476 1.76599L 1.75806 2.65282L 1.45097 2.34569Z"/>
</defs>
</svg>